<?xml version="1.0" encoding="UTF-8"?>
<!DOCTYPE svg PUBLIC "-//W3C//DTD SVG 1.1//EN" "http://www.w3.org/Graphics/SVG/1.1/DTD/svg11.dtd">
<!-- Creator: CorelDRAW X7 -->
<svg xmlns="http://www.w3.org/2000/svg" xml:space="preserve" width="23.7066mm" height="33.8666mm" version="1.1" style="shape-rendering:geometricPrecision; text-rendering:geometricPrecision; image-rendering:optimizeQuality; fill-rule:evenodd; clip-rule:evenodd"
viewBox="0 0 127 181"
 xmlns:xlink="http://www.w3.org/1999/xlink">
 <defs>
  <style type="text/css">
   <![CDATA[
    .str0 {stroke:black;stroke-width:1.06746}
    .str1 {stroke:#70FFA2;stroke-width:1.06746}
    .fil0 {fill:none}
    .fil1 {fill:black;fill-rule:nonzero}
   ]]>
  </style>
 </defs>
 <g id="Capa_x0020_1">
  <metadata id="CorelCorpID_0Corel-Layer"/>
  <rect class="fil0" width="127" height="181" rx="8" ry="8"/>
  <polygon class="fil1" points="71,43 65,43 65,48 64,48 64,43 58,43 58,41 64,41 64,36 65,36 65,41 71,41 "/>
  <polygon class="fil0 str0" points="64,21 73,26 82,32 82,42 82,53 73,58 64,63 55,58 46,53 46,42 46,32 55,26 "/>
  <path class="fil1" d="M53 127c0,1 -1,2 -2,2 0,1 -2,2 -3,2l-3 0 0 6 -1 0 0 -14 4 0c1,0 3,0 3,1 1,0 2,1 2,3zm-5 2c2,0 3,-1 3,-2 0,-1 0,-2 -1,-3 0,0 -1,0 -2,0l-3 0 0 5 3 0z"/>
  <path id="1" class="fil1" d="M54 131c0,-1 0,-2 1,-3 0,-1 1,-1 2,-2 1,0 1,-1 2,-1 2,0 2,1 3,1 1,1 1,1 2,2l0 -2 1 0 0 11 -1 0 0 -3c-1,1 -1,1 -2,2 -1,0 -1,1 -3,1 -1,0 -1,-1 -2,-1 -1,0 -2,-1 -2,-2 -1,-1 -1,-2 -1,-3zm10 0c0,-1 0,-2 -1,-2 0,-1 -1,-1 -1,-2 -1,0 -2,0 -2,0 -1,0 -2,0 -2,0 -1,1 -1,1 -2,2 0,0 0,1 0,2 0,1 0,2 0,2 1,1 1,2 2,2 0,0 1,0 2,0 0,0 1,0 2,0 0,0 1,-1 1,-2 1,0 1,-1 1,-2z"/>
  <path id="2" class="fil1" d="M70 128c0,-1 1,-2 1,-2 1,0 2,-1 3,-1l0 2 -1 0c-1,0 -2,0 -2,1 -1,0 -1,1 -1,2l0 7 -2 0 0 -11 2 0 0 2z"/>
  <path id="3" class="fil1" d="M75 131c0,-1 0,-2 1,-3 0,-1 1,-1 2,-2 0,0 1,-1 2,-1 1,0 2,1 3,1 1,1 1,1 2,2l0 -2 1 0 0 11 -1 0 0 -3c-1,1 -1,1 -2,2 -1,0 -2,1 -3,1 -1,0 -2,-1 -2,-1 -1,0 -2,-1 -2,-2 -1,-1 -1,-2 -1,-3zm10 0c0,-1 -1,-2 -1,-2 0,-1 -1,-1 -1,-2 -1,0 -2,0 -3,0 0,0 -1,0 -2,0 0,1 -1,1 -1,2 0,0 -1,1 -1,2 0,1 1,2 1,2 0,1 1,2 1,2 1,0 2,0 2,0 1,0 2,0 3,0 0,0 1,-1 1,-2 0,0 1,-1 1,-2z"/>
  <path id="4" class="fil1" d="M30 156c-2,0 -3,0 -3,0 -1,-1 -2,-2 -2,-3l2 0c0,1 0,1 1,2 0,0 1,0 2,0 0,0 1,0 1,0 1,-1 1,-1 1,-2 0,0 0,0 0,-1 0,0 -1,0 -1,0 0,0 -1,0 -2,-1 0,0 -1,0 -2,0 0,0 -1,-1 -1,-1 0,-1 0,-1 0,-2 0,0 0,-1 0,-1 0,-1 1,-1 1,-1 1,-1 2,-1 2,-1 2,0 3,0 3,1 1,1 1,1 1,3l-1 0c0,-1 0,-2 -1,-2 0,0 -1,-1 -2,-1 0,0 -1,1 -1,1 -1,0 -1,1 -1,1 0,1 0,1 0,1 1,0 1,1 1,1 1,0 1,0 2,0 1,1 1,1 2,1 0,0 1,0 1,1 0,0 1,1 1,1 0,1 -1,1 -1,2 0,0 -1,1 -1,1 -1,0 -2,0 -2,0z"/>
  <path id="5" class="fil1" d="M37 143c0,0 -1,0 -1,0 0,0 0,0 0,-1 0,0 0,0 0,-1 0,0 1,0 1,0 0,0 0,0 1,0 0,1 0,1 0,1 0,1 0,1 0,1 -1,0 -1,0 -1,0zm1 2l0 11 -2 0 0 -11 2 0z"/>
  <path id="6" class="fil1" d="M51 150c0,1 0,1 0,1l-9 0c0,1 0,2 0,2 0,1 1,1 2,2 0,0 1,0 1,0 1,0 2,0 3,0 0,-1 1,-1 1,-2l1 0c0,1 0,2 -1,2 -1,1 -2,1 -4,1 -1,0 -1,0 -2,0 -1,-1 -2,-1 -2,-2 -1,-1 -1,-2 -1,-3 0,-1 0,-2 1,-3 0,-1 1,-2 2,-2 1,-1 1,-1 2,-1 2,0 2,0 3,1 1,0 2,1 2,2 0,0 1,1 1,2zm-2 0c0,-1 0,-1 0,-2 -1,0 -1,-1 -2,-1 0,0 -1,-1 -2,-1 -1,0 -2,1 -2,1 -1,1 -1,2 -1,3l7 0z"/>
  <path id="7" class="fil1" d="M66 145c1,0 3,1 3,1 1,1 2,2 2,4l0 6 -2 0 0 -6c0,-1 0,-2 -1,-3 0,0 -1,-1 -2,-1 -1,0 -2,1 -3,1 0,1 0,2 0,3l0 6 -2 0 0 -6c0,-1 0,-2 -1,-3 0,0 -1,-1 -2,-1 -1,0 -2,1 -2,1 -1,1 -1,2 -1,3l0 6 -2 0 0 -11 2 0 0 2c0,0 0,-1 1,-1 1,-1 1,-1 2,-1 1,0 2,0 3,1 0,0 1,1 1,2 1,-1 1,-2 2,-2 0,-1 1,-1 2,-1z"/>
  <path id="8" class="fil1" d="M75 148c0,-1 1,-2 2,-2 0,-1 1,-1 2,-1 1,0 2,0 3,1 1,0 1,1 2,2 0,1 1,2 1,3 0,1 -1,2 -1,3 -1,1 -1,1 -2,2 -1,0 -2,0 -3,0 -1,0 -2,0 -2,0 -1,-1 -2,-1 -2,-2l0 7 -1 0 0 -16 1 0 0 3zm8 3c0,-1 0,-2 0,-3 -1,0 -1,-1 -2,-1 0,0 -1,-1 -2,-1 -1,0 -1,1 -2,1 -1,0 -1,1 -1,1 -1,1 -1,2 -1,3 0,1 0,1 1,2 0,1 0,1 1,2 1,0 1,0 2,0 1,0 2,0 2,0 1,-1 1,-1 2,-2 0,-1 0,-1 0,-2z"/>
  <path id="9" class="fil1" d="M89 147c0,0 0,-1 1,-1 1,-1 1,-1 2,-1l0 2 0 0c-1,0 -2,0 -3,0 0,1 0,2 0,3l0 6 -2 0 0 -11 2 0 0 2z"/>
  <path id="10" class="fil1" d="M104 150c0,1 0,1 0,1l-9 0c0,1 0,2 1,2 0,1 1,1 1,2 1,0 1,0 2,0 1,0 2,0 2,0 1,-1 1,-1 2,-2l1 0c0,1 -1,2 -2,2 0,1 -2,1 -3,1 -1,0 -2,0 -3,0 0,-1 -1,-1 -2,-2 0,-1 0,-2 0,-3 0,-1 0,-2 0,-3 1,-1 1,-2 2,-2 1,-1 2,-1 3,-1 1,0 2,0 3,1 1,0 1,1 2,2 0,0 0,1 0,2zm-1 0c0,-1 0,-1 -1,-2 0,0 0,-1 -1,-1 -1,0 -1,-1 -2,-1 -1,0 -2,1 -3,1 0,1 -1,2 -1,3l8 0z"/>
  <polygon class="fil0 str1" points="64,17 75,23 86,29 86,42 86,55 75,61 64,67 53,61 42,55 42,42 42,29 53,23 "/>
 </g>
</svg>
